<?xml version="1.0" encoding="utf-8"?>
<!-- Generator: Adobe Illustrator 22.0.1, SVG Export Plug-In . SVG Version: 6.00 Build 0)  -->
<svg version="1.1" id="Layer_1" xmlns="http://www.w3.org/2000/svg" xmlns:xlink="http://www.w3.org/1999/xlink" x="0px" y="0px"
	 viewBox="0 0 1500 500" style="enable-background:new 0 0 1500 500;" xml:space="preserve">
<style type="text/css">
	@keyframes spinnan {
		0% { transform: rotate(90deg); }
		100% { transform: rotate(0deg); }
	}
	
	.cube {
		transform-origin: 260.2px;
		animation-duration: 2000ms;
		animation-iteration-count: infinite;
		animation-name: spinnan;
		animation-timing-function: linear;
	}

	.st0{fill:#E6E6E6;}
	.st1{fill:#B3B3B3;}
	.st2{fill:#FF0000;}
	.st3{fill:#FFFF00;}
	.st4{fill:#3FA9F5;}
	.st5{fill:#009245;}
	.st6{fill:#FFFFFF;}
</style>
<g>
	<path class="st0 cube" d="M465.6,192.7l-31.4-5.7c-2.9-5.7-2.9-11.4-5.7-17.1l17.1-25.7l14.3-20l-74.2-74.2l-20,14.3l-25.7,17.1
		c-5.7-2.9-11.4-2.9-17.1-5.7l-5.7-31.4l-5.7-22.8H208.9l-5.7,22.8l-5.7,31.4c-5.7,2.9-11.4,2.9-17.1,5.7l-25.7-17.1l-20-11.4
		l-71.3,71.3l14.3,20l17.1,25.7c-5.7,5.7-5.7,11.4-8.6,17.1l-31.4,5.7L32,198.4v102.7l22.8,5.7l31.4,5.7c2.9,5.7,2.9,11.4,5.7,17.1
		l-17.1,25.7l-14.3,20l74.2,74.2l20-14.3l25.7-17.1c5.7,2.9,11.4,2.9,17.1,5.7l5.7,31.4l5.7,22.8h102.7l5.7-22.8l5.7-31.4
		c5.7-2.9,11.4-2.9,17.1-5.7l25.7,17.1l20,14.3l74.2-74.2l-14.3-20l-17.1-25.7c2.9-5.7,5.7-11.4,5.7-17.1l31.4-5.7l22.8-5.7V198.4
		C488.5,198.4,465.6,192.7,465.6,192.7z"/>
	<g>
		<circle class="st1" cx="260.2" cy="249.8" r="171.2"/>
	</g>
	<path class="st0" d="M329.6,208.4l-103.9,72.7c-23.9,16.7-29.4,50.1-12.4,74.4c17.1,24.4,50.3,30.6,74.2,13.8l103.9-72.7
		c23.9-16.7,29.4-50.1,12.4-74.4S353.5,191.6,329.6,208.4z"/>
	<circle class="st2" cx="359.7" cy="253.1" r="41.2"/>
	<circle class="st3" cx="257.6" cy="324.6" r="41.2"/>
	<path class="st0" d="M232.9,129.1L129,201.8c-23.9,16.7-29.4,50.1-12.4,74.4c17.1,24.4,50.3,30.6,74.2,13.8l103.9-72.7
		c23.9-16.7,29.4-50.1,12.4-74.4C290,118.5,256.8,112.3,232.9,129.1z"/>
	<circle class="st4" cx="262.9" cy="173.8" r="41.2"/>
	<circle class="st5" cx="160.8" cy="245.3" r="41.2"/>
</g>
<g>
	<path class="st6" d="M516.8,319v-19.3h57.8c5.2,0,9.7-1.9,13.6-5.6c3.8-3.8,5.7-8.4,5.7-13.7c0-5.2-1.9-9.7-5.7-13.6
		c-3.8-3.8-8.3-5.7-13.6-5.7h-19.3c-10.7,0-19.9-3.8-27.4-11.3c-7.4-7.4-11.1-16.5-11.1-27.3c0-10.6,3.8-19.7,11.3-27.3
		c7.4-7.5,16.5-11.3,27.3-11.3h77.1v19.3h-57.8c-5.3,0-9.9,1.9-13.7,5.7c-3.7,3.8-5.6,8.3-5.6,13.6c0,5.3,1.9,9.9,5.6,13.7
		c3.8,3.7,8.4,5.6,13.7,5.6h19.3c10.6,0,19.7,3.8,27.3,11.4c7.5,7.4,11.3,16.5,11.3,27.1c0,10.7-3.8,19.9-11.4,27.4
		c-7.4,7.4-16.5,11.1-27.1,11.1H516.8z"/>
	<path class="st6" d="M651.8,319V184h77.1c10.6,0,19.7,3.8,27.3,11.4c7.5,7.4,11.3,16.5,11.3,27.1V319h-38.6v-96.4
		c0-5.2-1.9-9.7-5.7-13.6c-3.8-3.8-8.3-5.7-13.6-5.7h-19.3V319H651.8z"/>
	<path class="st6" d="M825.3,319c-10.7,0-19.9-3.8-27.4-11.3c-7.4-7.4-11.1-16.5-11.1-27.3v-57.8c0-10.6,3.8-19.7,11.3-27.3
		c7.4-7.5,16.5-11.3,27.3-11.3h77.1v19.3h-57.8c-5.3,0-9.9,1.9-13.7,5.7c-3.7,3.8-5.6,8.3-5.6,13.6v19.3h77.1v19.3h-77.1v19.3
		c0,5.3,1.9,9.9,5.6,13.7c3.8,3.7,8.4,5.6,13.7,5.6h57.8V319H825.3z M825.1,314h0.2H825.1z"/>
	<path class="st6" d="M921.7,319v-19.3h57.8c5.2,0,9.7-1.9,13.6-5.6c3.8-3.8,5.7-8.4,5.7-13.7c0-5.2-1.9-9.7-5.7-13.6
		c-3.8-3.8-8.3-5.7-13.6-5.7h-19.3c-10.7,0-19.9-3.8-27.4-11.3c-7.4-7.4-11.1-16.5-11.1-27.3c0-10.6,3.8-19.7,11.3-27.3
		c7.4-7.5,16.5-11.3,27.3-11.3h77.1v19.3h-57.8c-5.3,0-9.9,1.9-13.7,5.7c-3.7,3.8-5.6,8.3-5.6,13.6c0,5.3,1.9,9.9,5.6,13.7
		c3.8,3.7,8.4,5.6,13.7,5.6h19.3c10.6,0,19.7,3.8,27.3,11.4c7.5,7.4,11.3,16.5,11.3,27.1c0,10.7-3.8,19.9-11.4,27.4
		c-7.4,7.4-16.5,11.1-27.1,11.1H921.7z"/>
	<path class="st6" d="M1095.2,319c-10.7,0-19.9-3.8-27.4-11.3c-7.4-7.4-11.1-16.5-11.1-27.3V184h38.6v96.4c0,5.3,1.9,9.9,5.6,13.7
		c3.8,3.7,8.4,5.6,13.7,5.6h57.8V319H1095.2z M1095.1,314h0.2H1095.1z"/>
	<path class="st6" d="M1191.6,319v-96.4c0-10.6,3.8-19.7,11.3-27.3c7.4-7.5,16.5-11.3,27.3-11.3h38.6c10.6,0,19.7,3.8,27.3,11.4
		c7.5,7.4,11.3,16.5,11.3,27.1V319h-38.6v-57.8h-38.6V319H1191.6z M1268.8,241.9v-19.3c0-5.2-1.9-9.7-5.7-13.6
		c-3.8-3.8-8.3-5.7-13.6-5.7c-5.3,0-9.9,1.9-13.7,5.7c-3.7,3.8-5.6,8.3-5.6,13.6v19.3H1268.8z"/>
	<path class="st6" d="M1326.6,319V184h77.1c10.6,0,19.7,3.8,27.3,11.4c7.5,7.4,11.3,16.5,11.3,27.1c0,10.7-3.8,19.9-11.4,27.4
		c-0.5,0.5-1.1,1-1.7,1.5c0.6,0.6,1.2,1.2,1.8,1.8c7.5,7.4,11.3,16.5,11.3,27.1c0,10.7-3.8,19.9-11.4,27.4
		c-7.4,7.4-16.5,11.1-27.1,11.1H1326.6z M1384.4,241.9c5.2,0,9.7-1.9,13.6-5.6c3.8-3.8,5.7-8.4,5.7-13.7c0-5.2-1.9-9.7-5.7-13.6
		c-3.8-3.8-8.3-5.7-13.6-5.7h-19.3v38.6H1384.4z M1384.4,299.7c5.2,0,9.7-1.9,13.6-5.6c3.8-3.8,5.7-8.4,5.7-13.7
		c0-5.2-1.9-9.7-5.7-13.6c-3.8-3.8-8.3-5.7-13.6-5.7h-19.3v38.6H1384.4z"/>
</g>
</svg>